<?xml version="1.0" encoding="UTF-8"?>
<svg width="40px" height="41px" viewBox="0 0 40 41" version="1.1" xmlns="http://www.w3.org/2000/svg" xmlns:xlink="http://www.w3.org/1999/xlink">
    <!-- Generator: Sketch 46.2 (44496) - http://www.bohemiancoding.com/sketch -->
    <title>Shape@3x</title>
    <desc>Created with Sketch.</desc>
    <defs></defs>
    <g id="Website" stroke="none" stroke-width="1" fill="none" fill-rule="evenodd">
        <g id="Desktop" transform="translate(-709.000000, -1463.000000)" fill="#4A4A4A">
            <path d="M729.327617,1463.00071 C727.296091,1463.00071 725.457888,1463.06964 723.810802,1463.17944 C722.175804,1463.28931 720.74163,1463.45396 719.509337,1463.67974 C718.26478,1463.91152 717.120017,1464.25317 716.113342,1464.6925 C715.088491,1465.14395 714.189551,1465.70176 713.40867,1466.3606 C712.621612,1467.03171 711.938496,1467.85681 711.371144,1468.83901 C710.80988,1469.81514 710.360498,1470.94798 710.012763,1472.22303 C709.335558,1474.7304 709,1478.08257 709,1482.26765 C709,1484.49434 709.042706,1486.50326 709.1665,1488.29689 C709.282441,1490.09042 709.452646,1491.65544 709.690617,1492.9915 C709.92241,1494.34585 710.264675,1495.55804 710.69138,1496.6257 C711.130703,1497.69937 711.653673,1498.6449 712.288172,1499.42577 C712.934759,1500.21886 713.720317,1500.89018 714.635403,1501.45138 C715.550579,1502.00047 716.597842,1502.43302 717.769252,1502.75022 C718.928221,1503.06746 720.288542,1503.31271 721.844216,1503.46509 C723.387714,1503.62373 725.141476,1503.7036 727.06315,1503.7036 C729.076412,1503.7036 730.885674,1503.66698 732.508495,1503.60838 C734.094698,1503.55353 735.443285,1503.45656 736.559724,1503.33448 C737.682164,1503.2125 738.683898,1503.04225 739.562367,1502.81046 C740.453101,1502.57868 741.215717,1502.30046 741.850128,1501.9526 C742.490715,1501.61096 743.071479,1501.16649 743.577861,1500.64185 C743.913419,1500.29415 744.173889,1499.95328 744.411948,1499.59336 C744.619301,1499.26999 744.676653,1498.9169 744.566889,1498.54475 C744.469213,1498.17871 744.235654,1497.89921 743.887743,1497.7345 L741.37357,1496.55488 C740.849012,1496.30476 740.256601,1496.44322 739.872249,1496.87638 C739.768484,1496.98624 739.660573,1497.08809 739.538543,1497.19785 C739.312838,1497.39311 739.074338,1497.57004 738.811662,1497.71036 C738.537162,1497.85068 738.230281,1497.98185 737.882369,1498.09165 C737.528458,1498.20141 737.117812,1498.28076 736.690842,1498.34177 C736.239342,1498.4089 735.721049,1498.4656 735.153697,1498.50834 C734.561904,1498.55708 733.929963,1498.59739 733.271111,1498.61567 C732.569465,1498.64002 731.69929,1498.64613 730.637821,1498.65229 C729.753175,1498.65864 728.501118,1498.66509 726.884474,1498.66509 C725.249476,1498.66509 723.815566,1498.59677 722.571009,1498.46252 C721.326452,1498.32827 720.279807,1498.1349 719.413514,1497.86644 C718.571574,1497.61021 717.843016,1497.26246 717.232958,1496.84182 C716.641165,1496.42694 716.163372,1495.94354 715.791284,1495.37617 C715.419108,1494.78442 715.105609,1494.10703 714.873815,1493.35056 C714.635845,1492.58798 714.476668,1491.73988 714.38508,1490.81253 C714.287492,1489.85478 714.207551,1488.64223 714.158757,1487.19031 C714.109963,1485.76888 714.087375,1484.04387 714.087375,1482.04285 C714.087375,1480.26145 714.124081,1478.70814 714.218581,1477.37207 C714.303904,1476.04212 714.446757,1474.92094 714.623668,1474.01192 C714.788403,1473.13954 715.033079,1472.36503 715.362373,1471.71221 C715.679667,1471.07165 716.078313,1470.53068 716.541989,1470.10368 L716.554783,1470.10368 C717.018459,1469.67051 717.59887,1469.31798 718.294428,1469.03129 C719.002074,1468.73844 719.839161,1468.51637 720.784689,1468.37595 C721.760834,1468.22346 722.961979,1468.11001 724.371272,1468.03066 C725.786652,1467.95741 727.430738,1467.92332 729.328058,1467.92332 C731.286438,1467.92332 732.965377,1467.95994 734.356316,1468.00693 C735.759431,1468.06178 736.920253,1468.13563 737.847516,1468.24544 C738.73825,1468.34919 739.517985,1468.51389 740.182925,1468.74573 C740.835688,1468.96535 741.376394,1469.25023 741.803452,1469.59168 C742.23051,1469.92725 742.583362,1470.35415 742.863862,1470.86662 C743.150626,1471.39126 743.372714,1472.02935 743.519273,1472.74931 C743.818214,1474.2622 743.96036,1476.5724 743.96036,1479.69593 C743.96036,1481.1662 743.936007,1482.42984 743.888978,1483.47311 C743.840272,1484.53456 743.778596,1485.4051 743.674831,1486.0945 C743.583331,1486.7595 743.451596,1487.32332 743.305214,1487.7626 C743.177097,1488.16521 743.00495,1488.4672 742.840303,1488.65625 C742.504833,1489.0284 741.998716,1489.22794 741.303247,1489.22794 C740.979865,1489.22794 740.7066,1489.17914 740.492983,1489.10899 C740.309895,1489.04797 740.16166,1488.96256 740.051896,1488.84665 C739.917602,1488.70022 739.80969,1488.54588 739.730367,1488.40557 C739.66322,1488.25914 739.599779,1488.11092 739.575426,1487.96449 C739.544896,1487.76928 739.510661,1487.48433 739.48022,1487.1185 C739.449691,1486.78908 739.409367,1486.33362 739.372926,1485.76015 L739.372926,1472.92727 C739.372926,1472.22565 738.799397,1471.65232 738.10984,1471.65232 L734.308845,1471.65232 C733.607199,1471.65232 733.033935,1472.2258 733.033935,1472.92727 L733.033935,1473.40373 C732.765524,1473.11699 732.492789,1472.87231 732.199848,1472.66497 C731.852113,1472.42097 731.487614,1472.20988 731.115526,1472.05734 C730.73735,1471.89258 730.338792,1471.77913 729.923999,1471.69988 L729.911205,1471.69988 C729.502499,1471.62658 729.070323,1471.56988 728.600559,1471.53332 C728.118531,1471.4967 727.60059,1471.48443 727.051503,1471.48443 C725.855828,1471.48443 724.797094,1471.60948 723.882096,1471.86572 C722.93648,1472.12806 722.145628,1472.52646 721.498952,1473.05726 C720.858365,1473.58189 720.340954,1474.18486 719.92616,1474.88031 C719.517367,1475.5636 719.215514,1476.32613 719.032515,1477.16807 C718.849427,1477.97945 718.718927,1478.90171 718.627339,1479.92052 C718.542015,1480.93929 718.496221,1482.06607 718.496221,1483.30445 C718.496221,1484.48797 718.545104,1485.57484 718.639074,1486.56926 C718.724309,1487.5698 718.867162,1488.46381 719.044073,1489.22639 C719.23925,1490.03172 719.552837,1490.74858 719.961543,1491.38303 C720.382513,1492.02363 720.899924,1492.56959 721.534335,1493.03932 C722.18101,1493.50294 722.972127,1493.85604 723.905566,1494.08788 C724.820565,1494.31355 725.86774,1494.42156 727.051238,1494.42156 C727.984678,1494.42156 728.849824,1494.34719 729.636881,1494.20683 C730.430027,1494.06651 731.141291,1493.84993 731.76979,1493.56339 C732.416377,1493.25837 732.991406,1492.81396 733.485523,1492.2527 C733.692964,1492.02086 733.90464,1491.75308 734.081551,1491.46633 C734.197492,1491.73474 734.322522,1491.99097 734.47508,1492.21696 C734.865521,1492.79649 735.372079,1493.2351 735.988225,1493.51573 C736.555665,1493.78419 737.216194,1493.99522 737.954369,1494.12331 C738.68028,1494.24534 739.488514,1494.31371 740.37316,1494.31371 C741.227276,1494.31371 742.012834,1494.25885 742.72048,1494.14715 C743.440391,1494.03127 744.065978,1493.86651 744.615065,1493.63473 C745.188506,1493.39678 745.694799,1493.05996 746.14021,1492.65757 C746.585533,1492.25496 746.972621,1491.76519 747.296003,1491.20394 C747.613208,1490.6488 747.886472,1489.99987 748.106178,1489.26173 C748.325795,1488.53572 748.49053,1487.71032 748.618648,1486.79524 C748.746765,1485.89235 748.837647,1484.84533 748.904794,1483.64958 C748.965853,1482.44166 749,1481.1041 749,1479.64606 C749,1477.82193 748.937706,1476.17724 748.809677,1474.71303 C748.675471,1473.24888 748.475971,1471.99735 748.213648,1470.93585 C747.945237,1469.84385 747.56362,1468.87599 747.081679,1468.05238 C746.593562,1467.20444 745.990387,1466.49906 745.270564,1465.91953 C744.562918,1465.33999 743.714714,1464.85017 742.732568,1464.4658 C741.774687,1464.08753 740.670424,1463.79124 739.432043,1463.59602 C738.218016,1463.39469 736.766636,1463.25253 735.082932,1463.15495 C733.386876,1463.05732 731.469085,1463 729.327794,1463 L729.327617,1463.00071 Z M728.815147,1476.46501 C729.656999,1476.46501 730.356792,1476.55591 730.924144,1476.73896 C731.460967,1476.90978 731.87629,1477.17213 732.175319,1477.51351 C732.486436,1477.86126 732.719465,1478.32776 732.878288,1478.91953 C733.049112,1479.54185 733.140612,1480.3049 733.140612,1481.18341 L733.140612,1483.59031 C733.140612,1484.37124 733.116259,1485.06603 733.069318,1485.65172 C733.020523,1486.25567 732.945965,1486.74455 732.854553,1487.1411 C732.775318,1487.49496 732.632465,1487.81401 732.437289,1488.08247 C732.254289,1488.3387 732.009613,1488.55462 731.698496,1488.73781 L731.68579,1488.73781 C731.368497,1488.92691 730.953262,1489.07514 730.434704,1489.17889 C729.879528,1489.28258 729.219353,1489.33378 728.456736,1489.33378 C727.834502,1489.33378 727.311267,1489.29101 726.872033,1489.19101 C726.463239,1489.09954 726.12124,1488.96287 725.871093,1488.78593 C725.614858,1488.60906 725.398329,1488.39854 725.239594,1488.15452 C725.074859,1487.91046 724.967477,1487.63775 724.894241,1487.32039 C724.821006,1486.96047 724.764359,1486.52216 724.727742,1486.0097 C724.684948,1485.5034 724.656359,1484.92894 724.656359,1484.27006 L724.656359,1481.48191 C724.656359,1480.54845 724.730742,1479.74605 724.858947,1479.07499 C724.987065,1478.4405 725.162741,1477.93415 725.407417,1477.54982 L725.407417,1477.53703 C725.620858,1477.2015 725.990563,1476.94589 726.515474,1476.76259 C727.095091,1476.56731 727.869531,1476.46485 728.815147,1476.46485 L728.815147,1476.46501 Z" id="Shape"></path>
        </g>
    </g>
</svg>