<?xml version="1.0" encoding="UTF-8"?>
<svg width="40px" height="40px" viewBox="0 0 40 40" version="1.1" xmlns="http://www.w3.org/2000/svg" xmlns:xlink="http://www.w3.org/1999/xlink">
    <!-- Generator: Sketch 46.2 (44496) - http://www.bohemiancoding.com/sketch -->
    <title>Group</title>
    <desc>Created with Sketch.</desc>
    <defs></defs>
    <g id="Website" stroke="none" stroke-width="1" fill="none" fill-rule="evenodd">
        <g id="Desktop" transform="translate(-897.000000, -1464.000000)" fill-rule="nonzero" fill="#4A4A4A">
            <g id="Group" transform="translate(897.000000, 1464.000000)">
                <path d="M32.3076923,0 L7.69230769,0 C3.48717949,0 0,3.48717949 0,7.69230769 L0,32.3076923 C0,36.5128205 3.48717949,40 7.69230769,40 L32.3076923,40 C36.5128205,40 40,36.5128205 40,32.3076923 L40,7.69230769 C40,3.48717949 36.6153846,0 32.3076923,0 Z M21.7435897,13.4358974 L21.7435897,16.9230769 L26.5641026,16.9230769 L26.5641026,19.8974359 L21.7435897,19.8974359 L21.7435897,31.7948718 L18.1538462,31.7948718 L18.1538462,19.8974359 L13.9487179,19.8974359 L13.9487179,16.9230769 L18.1538462,16.9230769 L18.1538462,12.8205128 C18.1538462,10.4615385 20,8.51282051 22.2564103,8.51282051 L26.5641026,8.51282051 L26.5641026,11.6923077 L23.2820513,11.6923077 C22.4615385,11.6923077 21.7435897,12.5128205 21.7435897,13.4358974 Z" id="Shape"></path>
            </g>
        </g>
    </g>
</svg>