<?xml version="1.0" encoding="UTF-8"?>
<svg width="40px" height="36px" viewBox="0 0 40 36" version="1.1" xmlns="http://www.w3.org/2000/svg" xmlns:xlink="http://www.w3.org/1999/xlink">
    <!-- Generator: Sketch 46.2 (44496) - http://www.bohemiancoding.com/sketch -->
    <title>Shape</title>
    <desc>Created with Sketch.</desc>
    <defs></defs>
    <g id="Website" stroke="none" stroke-width="1" fill="none" fill-rule="evenodd">
        <g id="Desktop" transform="translate(-1084.000000, -1466.000000)" fill-rule="nonzero" fill="#4A4A4A">
            <path d="M1086.7591,1479.38147 C1088.50695,1479.24458 1090.26733,1479.2308 1092.01352,1479.06929 C1092.79438,1478.99584 1092.93795,1479.23623 1092.94421,1479.95198 C1092.99972,1486.74309 1092.99972,1497.68056 1092.99471,1500.14459 C1092.99304,1500.90124 1093.20505,1501.18462 1093.98091,1501.18462 C1095.5589,1501.18963 1112.54919,1501.19881 1114.1034,1501.18462 C1114.80288,1501.17377 1115.08375,1501.28729 1115.08584,1500.59992 C1115.10921,1493.823 1115.07874,1486.73516 1115.09502,1479.96284 C1115.09502,1479.15276 1115.33792,1479.01545 1116.08455,1479.07931 C1117.80153,1479.22621 1122.09564,1479.19658 1122.2897,1478.68408 C1123.04761,1476.69749 1124,1471.55909 1124,1471.33581 C1121.7196,1470.40888 1109.59185,1466.20701 1108.83896,1466 C1107.73381,1467.75662 1105.98596,1468.90517 1104.00188,1468.90517 C1102.01613,1468.90517 1100.27036,1467.75412 1099.16313,1466 C1098.44404,1466.21827 1084.40274,1471.18556 1084,1471.33372 C1084,1471.50066 1085.31548,1477.52635 1085.74118,1478.67823 C1085.92941,1479.18114 1086.15936,1479.43071 1086.7591,1479.38147 Z" id="Shape"></path>
        </g>
    </g>
</svg>