<?xml version="1.0" encoding="UTF-8"?>
<svg width="40px" height="40px" viewBox="0 0 40 40" version="1.1" xmlns="http://www.w3.org/2000/svg" xmlns:xlink="http://www.w3.org/1999/xlink">
    <!-- Generator: Sketch 46.2 (44496) - http://www.bohemiancoding.com/sketch -->
    <title>Shape@3x</title>
    <desc>Created with Sketch.</desc>
    <defs></defs>
    <g id="Website" stroke="none" stroke-width="1" fill="none" fill-rule="evenodd">
        <g id="Desktop" transform="translate(-803.000000, -1464.000000)" fill-rule="nonzero" fill="#4A4A4A">
            <path d="M836.142667,1464 L809.857333,1464 C806.070222,1464 803,1467.07022 803,1470.85733 L803,1497.14311 C803,1500.92978 806.070222,1504 809.857333,1504 L836.143111,1504 C839.929778,1504 843,1500.92978 843,1497.14267 L843,1470.85733 C843,1467.07022 839.929778,1464 836.142667,1464 Z M816.757778,1480.532 L816.757778,1480.532 C816.760444,1480.52756 816.763556,1480.52267 816.767111,1480.51733 C816.846667,1480.37422 816.932,1480.23511 817.021333,1480.09822 C817.073778,1480.01778 817.129333,1479.94044 817.184889,1479.86222 C817.246667,1479.776 817.309778,1479.69156 817.375111,1479.608 C817.431111,1479.536 817.485778,1479.464 817.544889,1479.39467 C817.656,1479.26311 817.772,1479.13556 817.892444,1479.012 C817.951111,1478.952 818.012889,1478.89422 818.073778,1478.836 C818.160444,1478.75333 818.248889,1478.67289 818.34,1478.59467 C818.400889,1478.54222 818.460889,1478.48933 818.523556,1478.43867 C818.664444,1478.32489 818.810222,1478.21556 818.959556,1478.11244 C819.013778,1478.07511 819.070667,1478.04044 819.126222,1478.00489 C819.244444,1477.928 819.364889,1477.85467 819.488,1477.78444 C819.547111,1477.75111 819.605778,1477.71689 819.665778,1477.68489 C819.836889,1477.59467 820.010667,1477.50933 820.188889,1477.43289 C820.230222,1477.41511 820.272889,1477.40044 820.314222,1477.38356 C820.467111,1477.32133 820.622222,1477.26444 820.780444,1477.21289 C820.836889,1477.19422 820.892889,1477.176 820.949333,1477.15911 C821.145778,1477.10044 821.344,1477.04756 821.546667,1477.00578 C821.568889,1477.00089 821.592444,1476.99822 821.614667,1476.99378 C821.800889,1476.95689 821.990222,1476.92933 822.180889,1476.90711 C822.237333,1476.90089 822.293778,1476.89511 822.349778,1476.88978 C822.564,1476.87022 822.780444,1476.85689 822.999556,1476.85689 C823.218667,1476.85689 823.434667,1476.87022 823.649333,1476.88978 C823.705333,1476.89511 823.761778,1476.90089 823.817778,1476.90711 C824.009333,1476.92889 824.198222,1476.95689 824.384444,1476.99378 C824.407111,1476.99822 824.430667,1477.00089 824.452444,1477.00578 C824.655111,1477.04756 824.853333,1477.10044 825.049778,1477.15911 C825.106222,1477.17644 825.161778,1477.19467 825.218222,1477.21289 C825.376444,1477.26489 825.532444,1477.32222 825.685778,1477.384 C825.727556,1477.40089 825.769333,1477.41511 825.809778,1477.43289 C825.988,1477.50933 826.162222,1477.59467 826.333778,1477.68533 C826.392889,1477.71644 826.451111,1477.75022 826.509778,1477.78311 C826.634222,1477.85333 826.756,1477.928 826.876,1478.00533 C826.929778,1478.04089 826.985778,1478.07422 827.038667,1478.11111 C827.189333,1478.21467 827.335556,1478.32444 827.477333,1478.43911 C827.538667,1478.48889 827.597778,1478.54089 827.657333,1478.59244 C827.749333,1478.672 827.839556,1478.75378 827.927556,1478.83778 C827.987111,1478.89511 828.048,1478.95111 828.104889,1479.01022 C828.226667,1479.13422 828.343111,1479.26311 828.455556,1479.396 C828.512889,1479.46356 828.566667,1479.53422 828.621333,1479.60444 C828.688,1479.68978 828.752889,1479.77644 828.816,1479.86489 C828.870667,1479.94133 828.925333,1480.01778 828.976889,1480.09644 C829.711111,1481.21911 830.141778,1482.55867 830.141778,1484 C830.141778,1487.944 826.943111,1491.14267 822.999111,1491.14267 C819.054222,1491.14267 815.856444,1487.944 815.856444,1484 C815.857333,1482.74044 816.185778,1481.56 816.757778,1480.532 Z M838.714222,1495.01111 C838.714222,1497.78844 836.462667,1500.03911 833.685778,1500.03911 L812.314222,1500.03911 C809.536889,1500.03911 807.285778,1497.78844 807.285778,1495.01111 L807.285778,1480.532 L812.110667,1480.532 C811.762222,1481.62622 811.571556,1482.79111 811.571556,1484 C811.571556,1490.31111 816.688889,1495.42844 823,1495.42844 C829.311111,1495.42844 834.428444,1490.31111 834.428444,1484 C834.428444,1482.79067 834.237778,1481.62622 833.889333,1480.532 L838.714222,1480.532 L838.714222,1495.01111 Z M838.714222,1472 C838.714222,1472.31556 838.458667,1472.57156 838.142667,1472.57156 L835,1472.57156 C834.684,1472.57156 834.428444,1472.316 834.428444,1472 L834.428444,1468.85733 C834.428444,1468.54178 834.684,1468.28578 835,1468.28578 L838.142667,1468.28578 C838.458667,1468.28578 838.714222,1468.54178 838.714222,1468.85733 L838.714222,1472 Z" id="Shape"></path>
        </g>
    </g>
</svg>