<?xml version="1.0" encoding="UTF-8"?>
<svg width="242px" height="82px" viewBox="0 0 242 82" version="1.1" xmlns="http://www.w3.org/2000/svg" xmlns:xlink="http://www.w3.org/1999/xlink">
    <!-- Generator: Sketch 46.2 (44496) - http://www.bohemiancoding.com/sketch -->
    <title>logo@3x</title>
    <desc>Created with Sketch.</desc>
    <defs>
        <linearGradient x1="50%" y1="0%" x2="50%" y2="100%" id="linearGradient-1">
            <stop stop-color="#FFDC4D" offset="0%"></stop>
            <stop stop-color="#FFCD00" offset="100%"></stop>
        </linearGradient>
    </defs>
    <g id="Website" stroke="none" stroke-width="1" fill="none" fill-rule="evenodd">
        <g id="Desktop" transform="translate(-344.000000, -33.000000)">
            <g id="logo" transform="translate(344.000000, 33.000000)">
                <text id="Brighten" font-family="Avenir-Black, Avenir" font-size="36" font-weight="700" fill="#333333">
                    <tspan x="97" y="55">Brighten</tspan>
                </text>
                <g id="app-icon-w/-face-2">
                    <g id="Your_Icon">
                        <path d="M22.5046787,40.8357353 C22.5046787,50.6822442 30.3126154,58.6630817 39.948993,58.6630817 C49.5789941,58.6630817 57.3869308,50.6822442 57.3869308,40.8357353 C57.3869308,30.9892263 49.5789941,23.0051301 39.948993,23.0051301 C30.3126154,23.0051301 22.5046787,30.9892263 22.5046787,40.8357353 Z" id="Shape" fill="url(#linearGradient-1)"></path>
                        <path d="M45.6844979,5.75180507 C45.6844979,2.5800211 43.1326782,0 40.0024676,0 C36.8722569,0 34.3196351,2.5800211 34.3196351,5.75180507 L34.3196351,10.3428445 C34.3196351,13.5178799 36.8722569,16.103591 40.0024676,16.103591 C43.1326782,16.103591 45.6844979,13.5178799 45.6844979,10.3428445 L45.6844979,5.75180507 L45.6844979,5.75180507 Z" id="Shape" fill="#FFDA43"></path>
                        <path d="M45.6844979,71.3160194 C45.6844979,68.1463669 43.1326782,65.5646207 40.0024676,65.5646207 C36.8722569,65.5646207 34.3196351,68.1463669 34.3196351,71.3160194 L34.3196351,75.9143736 C34.3196351,79.0872787 36.8722569,81.6682117 40.0024676,81.6682117 C43.1326782,81.6682117 45.6844979,79.0872787 45.6844979,75.9143736 L45.6844979,71.3160194 L45.6844979,71.3160194 Z" id="Shape" fill="#FFCD00"></path>
                        <path d="M22.9890782,15.3142155 L19.7867845,12.0476949 C18.7252198,10.95395 17.2996672,10.3523085 15.7877174,10.3523085 C14.2757676,10.3523085 12.8566148,10.95395 11.7830504,12.0476949 C10.7150859,13.1414398 10.1271054,14.5948616 10.1271054,16.1398376 C10.1271054,17.6823612 10.7150859,19.1349656 11.7830504,20.2262581 L14.9797442,23.4985009 C16.0469088,24.5897934 17.4724614,25.1906174 18.9844112,25.1906174 C20.496361,25.1906174 21.9219136,24.5897934 22.9890782,23.4985009 C25.1938049,21.2456153 25.1938049,17.5752755 22.9890782,15.3142155 L22.9890782,15.3142155 Z" id="Shape" fill="#FFD83A"></path>
                        <path d="M68.2156549,61.5545269 L65.0208322,58.2880063 C63.9478963,57.1934439 62.5239775,56.59262 61.0185093,56.59262 C59.5074445,56.59262 58.0827262,57.1934439 57.0161863,58.2880063 C54.8071535,60.5433442 54.81275,64.213684 57.0161863,66.4690219 L60.2166056,69.73636 C61.283945,70.8301049 62.7022672,71.4309288 64.2189285,71.4309288 C65.7243968,71.4309288 67.142719,70.8268351 68.2100584,69.7330902 C69.2829944,68.6450674 69.8706307,67.1949154 69.8770267,65.6523917 C69.8778262,64.1016936 69.2885909,62.6482718 68.2156549,61.5545269 L68.2156549,61.5545269 Z" id="Shape" fill="#FFCD00"></path>
                        <path d="M10.1249466,35.0828233 L5.62753299,35.0828233 C2.5242778,35.0828233 0,37.6909544 0,40.8932601 C0,44.092283 2.5242778,46.700414 5.62753299,46.700414 L10.1249466,46.700414 C13.2282018,46.700414 15.7532749,44.092283 15.7532749,40.8932601 C15.7540702,37.6909544 13.2289971,35.0828233 10.1249466,35.0828233 L10.1249466,35.0828233 Z" id="Shape" fill="#FFD217"></path>
                        <path d="M69.7625719,35.0828233 C66.6580628,35.0828233 64.1383344,37.6889604 64.1383344,40.8928503 C64.1383344,44.0967403 66.6580628,46.700414 69.7625719,46.700414 L74.2618028,46.700414 C77.3663118,46.700414 79.8916096,44.0967403 79.8916096,40.8928503 C79.8916096,37.6889604 77.3663118,35.0828233 74.2618028,35.0828233 L69.7625719,35.0828233 Z" id="Shape" fill="#FFD216"></path>
                        <path d="M24.642584,62.3711571 C24.642584,60.8253636 24.0549614,59.3727593 22.9876468,58.2880063 C21.9211317,57.1934439 20.4964466,56.59262 18.9854169,56.59262 C17.4695903,56.59262 16.0497021,57.1934439 14.983187,58.2880063 L11.7820427,61.5545269 C10.7155276,62.645002 10.1271054,64.0984238 10.1271054,65.6433998 C10.1271054,67.1859234 10.7155276,68.6393453 11.7884386,69.7330902 C12.8613496,70.8268351 14.2796388,71.4309288 15.7850721,71.4309288 C17.2905053,71.4309288 18.7143909,70.8301049 19.787302,69.73636 L22.9876468,66.4632998 C24.0541619,65.3728247 24.6481804,63.9185854 24.642584,62.3711571 L24.642584,62.3711571 Z" id="Shape" fill="#FFCD00"></path>
                        <path d="M68.2214391,12.0508711 C67.1543114,10.9539168 65.728808,10.3523085 64.2113108,10.3523085 C62.6986133,10.3523085 61.2795095,10.9539168 60.2179815,12.0443319 L57.0157985,15.3139421 C54.8111479,17.5667036 54.8111479,21.2368412 57.0093989,23.4985941 C58.0773265,24.5890091 59.50203,25.1906174 61.0139275,25.1906174 C62.5314247,25.1906174 63.9513284,24.5890091 65.0192561,23.4985941 L68.2214391,20.2289838 C70.4316893,17.9705005 70.4260896,14.300363 68.2214391,12.0508711 L68.2214391,12.0508711 Z" id="Shape" fill="#FFD83A"></path>
                    </g>
                    <g id="face" transform="translate(31.922272, 36.651320)">
                        <path d="M13.9784929,5.13041753 C15.110027,5.13041753 16.0273165,4.19538313 16.0273165,3.04195961 C16.0273165,1.8885361 15.110027,0.953501694 13.9784929,0.953501694 C12.8469589,0.953501694 11.9296694,1.8885361 11.9296694,3.04195961 C11.9296694,4.19538313 12.8469589,5.13041753 13.9784929,5.13041753 Z" id="Oval-2" fill="#191404"></path>
                        <g id="mouth" transform="translate(4.076674, 9.364312)">
                            <g id="tongue" transform="translate(4.576674, 1.043700)" fill="#FF3824">
                                <path d="M2.98814276,1.16272479 L2.24251318,0.427099214 C1.99212328,0.180621653 1.66650516,0.0521480595 1.32722037,0.0644486095 C0.986674291,0.0767948864 0.670299987,0.228543498 0.438519888,0.49250182 C-0.0416384247,1.0364795 -0.0115922917,1.89233062 0.502679975,2.40025587 L1.24957725,3.13602634 C1.49869946,3.382359 1.82305629,3.51087832 2.16486365,3.49848632 C2.50414844,3.48618577 2.81905564,3.33372693 3.05102233,3.0699527 C3.28429518,2.8074671 3.40535687,2.46450073 3.394701,2.10474305 C3.38271974,1.74312486 3.23852625,1.40901173 2.98814276,1.16272479 L2.98814276,1.16272479 L2.98814276,1.16272479 Z" id="Shape-4"></path>
                            </g>
                            <path d="M3.97582911,1.48499943 C2.92008648,1.48499943 1.94601272,1.04299024 1.4980929,0.358663627 C1.28529401,0.031403848 0.820206943,-0.0717625194 0.457429085,0.128547029 C0.0936288692,0.328856578 -0.0317902942,0.756657233 0.179108021,1.08422589 C0.898227915,2.18878556 2.35605435,2.87496546 3.97440667,2.87496546 C5.59275899,2.87496546 7.05216122,2.18878556 7.77353651,1.08407145 C7.98510887,0.756657233 7.86056477,0.328856578 7.4970054,0.128547029 C7.13480617,-0.0717625194 6.6693393,0.031403848 6.4558706,0.358663627 C6.00655016,1.04299024 5.03157174,1.48499943 3.97582911,1.48499943 Z" id="Shape-2" fill="#191404"></path>
                        </g>
                        <rect id="Rectangle-199" fill="#191404" x="0.0377778368" y="2.44237644" width="4.43889582" height="1.80990637" rx="0.904953183"></rect>
                    </g>
                </g>
            </g>
        </g>
    </g>
</svg>