<?xml version="1.0" encoding="UTF-8"?>
<svg width="415px" height="41px" viewBox="0 0 415 41" version="1.1" xmlns="http://www.w3.org/2000/svg" xmlns:xlink="http://www.w3.org/1999/xlink">
    <!-- Generator: Sketch 46.2 (44496) - http://www.bohemiancoding.com/sketch -->
    <title>Social</title>
    <desc>Created with Sketch.</desc>
    <defs></defs>
    <g id="Website" stroke="none" stroke-width="1" fill="none" fill-rule="evenodd">
        <g id="Desktop" transform="translate(-709.000000, -1463.000000)" fill="#4A4A4A">
            <g id="Social" transform="translate(709.000000, 1463.000000)">
                <path d="M377.759096,16.3814676 C379.506954,16.2445771 381.267333,16.2308045 383.013522,16.0692904 C383.794382,15.9958369 383.937951,16.2362301 383.944211,16.951984 C383.999718,23.7430903 383.999718,34.6805609 383.99471,37.1445906 C383.993041,37.9012447 384.205054,38.1846249 384.980906,38.1846249 C386.558904,38.189633 403.54919,38.1988147 405.103398,38.1846249 C405.802876,38.1737738 406.083752,38.2872928 406.085838,37.5999186 C406.10921,30.8230022 406.078743,23.7351606 406.09502,16.9628351 C406.09502,16.1527602 406.337917,16.0154524 407.084555,16.0793068 C408.80153,16.2262137 413.095636,16.1965819 413.289703,15.6840771 C414.047609,13.6974949 415,8.55909143 415,8.33580961 C412.719604,7.40887702 400.591853,3.20700521 399.838955,3 C398.733815,4.75662281 396.985956,5.90516783 395.001878,5.90516783 C393.016131,5.90516783 391.270359,4.75411871 390.163131,3 C389.444039,3.21827364 375.402742,8.18556389 375,8.33372286 C375,8.50066254 376.315485,14.5263504 376.741181,15.6782342 C376.929405,16.18114 377.159365,16.4307148 377.759096,16.3814676 Z" id="Shape" fill-rule="nonzero"></path>
                <path d="M20.3276172,0.000714704831 C18.2960907,0.000714704831 16.4578876,0.0696440152 14.8108017,0.179443854 C13.1758042,0.289305457 11.7416298,0.453961097 10.5093375,0.679737236 C9.26478049,0.911522189 8.12001747,1.25316875 7.11334248,1.69250045 C6.08849105,2.14394685 5.18955119,2.70176073 4.40866999,3.36060388 C3.62161232,4.03171172 2.93849568,4.85680756 2.37114357,5.83900612 C1.80987969,6.81514292 1.360498,7.94797655 1.01276322,9.22302761 C0.33555833,11.7303975 0,15.0825749 0,19.2676481 C0,21.4943419 0.0427058196,23.5032625 0.166499755,25.2968893 C0.282440761,27.090419 0.452646393,28.6554373 0.690616631,29.991503 C0.922410408,31.345851 1.26467461,32.5580433 1.69137987,33.6256976 C2.13070275,34.6993696 2.65367257,35.6448976 3.28817164,36.42577 C3.93475892,37.2188629 4.72031659,37.8901825 5.63540348,38.4513846 C6.5505786,39.0004721 7.59784177,39.4330185 8.76925181,39.7502151 C9.92822069,40.0674646 11.2885422,40.3127054 12.8442164,40.4650876 C14.3877141,40.6237344 16.1414763,40.703596 18.0631499,40.703596 C20.0764117,40.703596 21.8856737,40.6669784 23.5084948,40.6083815 C25.0946984,40.5535257 26.4432846,40.456564 27.5597242,40.3344819 C28.6821637,40.2124967 29.6838975,40.042247 30.5623668,39.810462 C31.4531008,39.5786771 32.2157173,39.3004628 32.8501282,38.9526045 C33.4907155,38.6109579 34.0714793,38.1664909 34.5778609,37.6418535 C34.9134192,37.294154 35.1738895,36.9532839 35.4119479,36.593355 C35.6193006,36.2699908 35.6766534,35.9169001 35.5668889,35.5447507 C35.4692125,35.1787071 35.2356541,34.8992134 34.8877428,34.734496 L32.37357,33.5548801 C31.849012,33.3047598 31.2566011,33.4432185 30.8722487,33.8763825 C30.7684842,33.9862441 30.6605726,34.088094 30.5385433,34.1978497 C30.3128378,34.3931141 30.0743381,34.5700433 29.811662,34.7103637 C29.5371624,34.8506752 29.2302805,34.9818456 28.8823693,35.0916543 C28.528458,35.20141 28.1178116,35.2807599 27.6908416,35.3417745 C27.2393423,35.4089038 26.7210489,35.4656037 26.1536968,35.508336 C25.5619036,35.5570771 24.9299633,35.5973918 24.2711114,35.6156741 C23.5694653,35.6400182 22.6992901,35.6461329 21.6378211,35.6522917 C20.7531754,35.6586446 19.5011184,35.6650858 17.8844737,35.6650858 C16.2494761,35.6650858 14.8155664,35.5967741 13.5710095,35.4625243 C12.3264525,35.3282657 11.2798069,35.1348983 10.4135141,34.8664428 C9.57157416,34.6102079 8.84301641,34.2624555 8.23295848,33.8418208 C7.64116523,33.4269391 7.16337182,32.9435427 6.79128413,32.376173 C6.41910821,31.784415 6.10560867,31.1070337 5.87381489,30.3505583 C5.63584465,29.5879771 5.47666842,28.7398783 5.38508032,27.8125267 C5.28749222,26.8547782 5.20755117,25.6422329 5.15875712,24.1903056 C5.10996307,22.7688812 5.08737487,21.0438661 5.08737487,19.0428514 C5.08737487,17.2614452 5.1240807,15.7081357 5.21858056,14.37207 C5.30390396,13.0421191 5.4467567,11.9209413 5.6236682,11.011925 C5.78840325,10.1395351 6.03307936,9.36503329 6.362373,8.71220778 C6.67966665,8.07164695 7.07831312,7.53067716 7.54198891,7.10368073 L7.55478301,7.10368073 C8.0184588,6.67050784 8.59886971,6.31798189 9.29442751,6.03128819 C10.0020735,5.7384445 10.8391605,5.51636542 11.7846886,5.37594798 C12.7608342,5.22345997 13.9619795,5.11000719 15.3712715,5.03065731 C16.7866518,4.9574133 18.4307376,4.92331923 20.3280583,4.92331923 C22.2864378,4.92331923 23.9653765,4.95993682 25.3563157,5.00693087 C26.7594312,5.06177785 27.9202531,5.13563068 28.8475164,5.24543934 C29.7382504,5.34918625 30.5179845,5.51389483 31.1829247,5.74573273 C31.8356885,5.96535005 32.3763936,6.25023493 32.8034518,6.59167854 C33.23051,6.92725452 33.5833624,7.35415389 33.863862,7.86662373 C34.1506262,8.39126119 34.3727142,9.02935143 34.5192728,9.74930625 C34.8182135,11.262204 34.9603604,13.5724036 34.9603604,16.6959284 C34.9603604,18.1661998 34.9360074,19.429842 34.8889781,20.4731081 C34.8402723,21.5345595 34.7785959,22.4050965 34.6748314,23.0944954 C34.5833315,23.7594974 34.4515964,24.3233201 34.3052143,24.7625989 C34.1770968,25.1652071 34.00495,25.4672008 33.8403032,25.6562534 C33.5048331,26.0284029 32.9987162,26.2279379 32.3032466,26.2279379 C31.9798647,26.2279379 31.7066004,26.1791439 31.4929831,26.1089881 C31.3098951,26.0479735 31.1616601,25.9625618 31.0518955,25.8466473 C30.9176016,25.700221 30.80969,25.5458801 30.7303666,25.4055685 C30.6632196,25.2591423 30.5997785,25.110916 30.5754256,24.9644898 C30.5448963,24.7692783 30.510661,24.4843316 30.4802199,24.1184998 C30.4496905,23.7890827 30.409367,23.3336216 30.3729259,22.7601459 L30.3729259,9.92726775 C30.3729259,9.2256482 29.7993974,8.65232257 29.1098395,8.65232257 L25.3088451,8.65232257 C24.6071991,8.65232257 24.0339352,9.2257982 24.0339352,9.92726775 L24.0339352,10.4037288 C23.7655239,10.116991 23.492789,9.87231489 23.1998482,9.66497108 C22.8521135,9.42096556 22.487614,9.20988057 22.1155263,9.05733962 C21.7373504,8.8925781 21.3387921,8.77912532 20.9239986,8.69988132 L20.9112045,8.69988132 C20.5024993,8.62658437 20.0703234,8.56988446 19.6005594,8.5333198 C19.1185307,8.49670221 18.6005903,8.4844287 18.0515029,8.4844287 C16.8558282,8.4844287 15.7970944,8.6094844 14.8820958,8.86571932 C13.9364795,9.12806011 13.1456277,9.52645952 12.4989522,10.0572558 C11.8583649,10.5818933 11.3409539,11.1848571 10.9261604,11.880309 C10.5173669,12.5636021 10.2155144,13.3261304 10.0325147,14.1680703 C9.84942669,14.9794456 9.71892688,15.901706 9.62733878,16.9205222 C9.54201538,17.9392942 9.49622133,19.0660661 9.49622133,20.3044466 C9.49622133,21.4879713 9.54510361,22.5748433 9.63907406,23.5692624 C9.72430923,24.5697962 9.86716196,25.4638126 10.0440735,26.2263938 C10.2392496,27.0317161 10.5528374,27.7485827 10.9615427,28.3830288 C11.3825127,29.0236338 11.8999237,29.5695889 12.5343345,30.0393176 C13.18101,30.5029404 13.9721265,30.8560399 14.9055663,31.0878778 C15.820565,31.3135481 16.8677399,31.4215567 18.0512382,31.4215567 C18.984678,31.4215567 19.8498238,31.3471921 20.6368814,31.2068276 C21.4300273,31.0665073 22.141291,30.8499252 22.76979,30.5633903 C23.4163773,30.2583702 23.9914059,29.8139562 24.4855228,29.2527011 C24.6929637,29.0208632 24.9046398,28.7530783 25.0815514,28.4663317 C25.1974924,28.734743 25.3225216,28.9909691 25.4750802,29.216957 C25.8655208,29.7964944 26.3720789,30.2351026 26.988225,30.5157345 C27.5556654,30.78419 28.2161938,30.9952221 28.9543692,31.1233131 C29.6802799,31.2453423 30.488514,31.3137069 31.3731597,31.3137069 C32.2272761,31.3137069 33.0128338,31.2588511 33.7204798,31.1471454 C34.4403905,31.031275 35.0659778,30.8665134 35.6150653,30.6347285 C36.1885056,30.3967847 36.694799,30.0599646 37.1402101,29.6575682 C37.585533,29.2549599 37.9726206,28.765193 38.2960025,28.2039379 C38.6132079,27.6487976 38.8864722,26.9998721 39.1061778,26.261732 C39.3257951,25.5357154 39.4905302,24.7103195 39.6186476,23.7952415 C39.7467651,22.8923487 39.8376473,21.8453326 39.9047943,20.6495785 C39.965853,19.4416567 40,18.1040998 40,16.6460579 C40,14.8219282 39.937706,13.1772424 39.8096768,11.7130328 C39.6754711,10.2488761 39.4759714,8.99734853 39.2136482,7.93585304 C38.9452368,6.84385464 38.5636198,5.87598548 38.0816793,5.05238081 C37.5935624,4.20444088 36.9903868,3.4990625 36.2705643,2.91952512 C35.5629183,2.33998774 34.7147137,1.85016787 33.732568,1.46579784 C32.7746871,1.08753369 31.670424,0.791240013 30.4320435,0.596019712 C29.2180159,0.394693537 27.7666356,0.25252904 26.0829322,0.154949772 C24.3868759,0.0573175628 22.4690846,0 20.3277936,0 L20.3276172,0.000714704831 Z M19.8151473,13.4650126 C20.656999,13.4650126 21.3567921,13.5559124 21.9241442,13.7389563 C22.460967,13.9097795 22.8762899,14.1721292 23.1753189,14.513511 C23.486436,14.8612634 23.7194651,15.3277628 23.8782884,15.9195295 C24.0491117,16.5418521 24.1406116,17.304901 24.1406116,18.1834056 L24.1406116,20.5903109 C24.1406116,21.3712362 24.1162587,22.0660264 24.0693175,22.6517226 C24.0205235,23.2556658 23.9459648,23.7445504 23.8545532,24.1410969 C23.775318,24.494964 23.6324652,24.8140135 23.4372891,25.082469 C23.2542893,25.3386951 23.0096132,25.5546154 22.698496,25.7378092 L22.6857902,25.7378092 C22.3684965,25.9269148 21.9532618,26.0751411 21.4347038,26.178888 C20.8795281,26.2825819 20.2193526,26.3337848 19.4567361,26.3337848 C18.8345017,26.3337848 18.3112672,26.2910084 17.8720325,26.1910115 C17.463239,26.0995381 17.1212395,25.9628706 16.8710928,25.7859327 C16.6148579,25.6090565 16.3983288,25.3985362 16.2395938,25.1545218 C16.0748587,24.9104634 15.9674765,24.6377461 15.8942413,24.3203907 C15.8210061,23.9604706 15.7643592,23.5221625 15.7277416,23.0097015 C15.6849475,22.5033993 15.6563593,21.9289442 15.6563593,21.270057 L15.6563593,18.4819052 C15.6563593,17.5484477 15.7307416,16.7460548 15.8589473,16.0749911 C15.9870647,15.4405008 16.1627409,14.9341457 16.407417,14.5498198 L16.407417,14.5370345 C16.6208579,14.2015026 16.9905632,13.9458854 17.5154742,13.7625856 C18.095091,13.5673124 18.8695311,13.4648537 19.8151473,13.4648537 L19.8151473,13.4650126 Z" id="Shape"></path>
                <g id="noun_20940" transform="translate(281.000000, 4.000000)" fill-rule="nonzero">
                    <path d="M35.9073258,8.10090954 C35.92609,8.45221652 35.9333872,8.80665086 35.9333872,9.16212765 C35.9333872,20.0078184 27.6781945,32.5130958 12.582419,32.5130958 C7.94871127,32.5130958 3.63399442,31.1547783 -4.97379915e-14,28.8259363 C0.639024263,28.8968231 1.29577024,28.9416486 1.95772849,28.9416486 C5.80334106,28.9416486 9.34142973,27.6281567 12.1518855,25.4254515 C8.55646191,25.3618618 5.52813323,22.9861093 4.48255193,19.7263558 C4.98397227,19.8222616 5.49894452,19.8754268 6.02329885,19.8754268 C6.77386568,19.8754268 7.49941362,19.7732663 8.18639076,19.586667 C4.43147168,18.828803 1.60120925,15.5158844 1.60120925,11.5357953 C1.60120925,11.5003518 1.60120925,11.4680358 1.60120925,11.4336348 C2.70829533,12.0465977 3.97487686,12.4156264 5.31964244,12.4573245 C3.11797972,10.9853796 1.67105366,8.47098069 1.67105366,5.62508144 C1.67105366,4.12186287 2.07552579,2.7135076 2.78230956,1.50113367 C6.82703083,6.46634177 12.876391,9.73234995 19.6982096,10.0742748 C19.5564358,9.47590628 19.4876339,8.84626411 19.4876339,8.20307003 C19.4876339,3.67465013 23.1612416,4.97379915e-14 27.6917464,4.97379915e-14 C30.053947,4.97379915e-14 32.1878502,0.996585963 33.6848141,2.58841312 C35.5518491,2.22251179 37.3104688,1.53970446 38.8960413,0.59836856 C38.2820359,2.51335644 36.9800109,4.12186287 35.2881082,5.137213 C36.9466524,4.94123166 38.5259701,4.50027364 40,3.84457012 C38.902296,5.49894452 37.5127049,6.94378567 35.9073258,8.10090954 Z" id="Shape"></path>
                </g>
                <g id="Group" transform="translate(188.000000, 1.000000)" fill-rule="nonzero">
                    <path d="M32.3076923,0 L7.69230769,0 C3.48717949,0 0,3.48717949 0,7.69230769 L0,32.3076923 C0,36.5128205 3.48717949,40 7.69230769,40 L32.3076923,40 C36.5128205,40 40,36.5128205 40,32.3076923 L40,7.69230769 C40,3.48717949 36.6153846,0 32.3076923,0 Z M21.7435897,13.4358974 L21.7435897,16.9230769 L26.5641026,16.9230769 L26.5641026,19.8974359 L21.7435897,19.8974359 L21.7435897,31.7948718 L18.1538462,31.7948718 L18.1538462,19.8974359 L13.9487179,19.8974359 L13.9487179,16.9230769 L18.1538462,16.9230769 L18.1538462,12.8205128 C18.1538462,10.4615385 20,8.51282051 22.2564103,8.51282051 L26.5641026,8.51282051 L26.5641026,11.6923077 L23.2820513,11.6923077 C22.4615385,11.6923077 21.7435897,12.5128205 21.7435897,13.4358974 Z" id="Shape"></path>
                </g>
                <path d="M127.142667,1 L100.857333,1 C97.0702222,1 94,4.07022222 94,7.85733333 L94,34.1431111 C94,37.9297778 97.0702222,41 100.857333,41 L127.143111,41 C130.929778,41 134,37.9297778 134,34.1426667 L134,7.85733333 C134,4.07022222 130.929778,1 127.142667,1 Z M107.757778,17.532 L107.757778,17.532 C107.760444,17.5275556 107.763556,17.5226667 107.767111,17.5173333 C107.846667,17.3742222 107.932,17.2351111 108.021333,17.0982222 C108.073778,17.0177778 108.129333,16.9404444 108.184889,16.8622222 C108.246667,16.776 108.309778,16.6915556 108.375111,16.608 C108.431111,16.536 108.485778,16.464 108.544889,16.3946667 C108.656,16.2631111 108.772,16.1355556 108.892444,16.012 C108.951111,15.952 109.012889,15.8942222 109.073778,15.836 C109.160444,15.7533333 109.248889,15.6728889 109.34,15.5946667 C109.400889,15.5422222 109.460889,15.4893333 109.523556,15.4386667 C109.664444,15.3248889 109.810222,15.2155556 109.959556,15.1124444 C110.013778,15.0751111 110.070667,15.0404444 110.126222,15.0048889 C110.244444,14.928 110.364889,14.8546667 110.488,14.7844444 C110.547111,14.7511111 110.605778,14.7168889 110.665778,14.6848889 C110.836889,14.5946667 111.010667,14.5093333 111.188889,14.4328889 C111.230222,14.4151111 111.272889,14.4004444 111.314222,14.3835556 C111.467111,14.3213333 111.622222,14.2644444 111.780444,14.2128889 C111.836889,14.1942222 111.892889,14.176 111.949333,14.1591111 C112.145778,14.1004444 112.344,14.0475556 112.546667,14.0057778 C112.568889,14.0008889 112.592444,13.9982222 112.614667,13.9937778 C112.800889,13.9568889 112.990222,13.9293333 113.180889,13.9071111 C113.237333,13.9008889 113.293778,13.8951111 113.349778,13.8897778 C113.564,13.8702222 113.780444,13.8568889 113.999556,13.8568889 C114.218667,13.8568889 114.434667,13.8702222 114.649333,13.8897778 C114.705333,13.8951111 114.761778,13.9008889 114.817778,13.9071111 C115.009333,13.9288889 115.198222,13.9568889 115.384444,13.9937778 C115.407111,13.9982222 115.430667,14.0008889 115.452444,14.0057778 C115.655111,14.0475556 115.853333,14.1004444 116.049778,14.1591111 C116.106222,14.1764444 116.161778,14.1946667 116.218222,14.2128889 C116.376444,14.2648889 116.532444,14.3222222 116.685778,14.384 C116.727556,14.4008889 116.769333,14.4151111 116.809778,14.4328889 C116.988,14.5093333 117.162222,14.5946667 117.333778,14.6853333 C117.392889,14.7164444 117.451111,14.7502222 117.509778,14.7831111 C117.634222,14.8533333 117.756,14.928 117.876,15.0053333 C117.929778,15.0408889 117.985778,15.0742222 118.038667,15.1111111 C118.189333,15.2146667 118.335556,15.3244444 118.477333,15.4391111 C118.538667,15.4888889 118.597778,15.5408889 118.657333,15.5924444 C118.749333,15.672 118.839556,15.7537778 118.927556,15.8377778 C118.987111,15.8951111 119.048,15.9511111 119.104889,16.0102222 C119.226667,16.1342222 119.343111,16.2631111 119.455556,16.396 C119.512889,16.4635556 119.566667,16.5342222 119.621333,16.6044444 C119.688,16.6897778 119.752889,16.7764444 119.816,16.8648889 C119.870667,16.9413333 119.925333,17.0177778 119.976889,17.0964444 C120.711111,18.2191111 121.141778,19.5586667 121.141778,21 C121.141778,24.944 117.943111,28.1426667 113.999111,28.1426667 C110.054222,28.1426667 106.856444,24.944 106.856444,21 C106.857333,19.7404444 107.185778,18.56 107.757778,17.532 Z M129.714222,32.0111111 C129.714222,34.7884444 127.462667,37.0391111 124.685778,37.0391111 L103.314222,37.0391111 C100.536889,37.0391111 98.2857778,34.7884444 98.2857778,32.0111111 L98.2857778,17.532 L103.110667,17.532 C102.762222,18.6262222 102.571556,19.7911111 102.571556,21 C102.571556,27.3111111 107.688889,32.4284444 114,32.4284444 C120.311111,32.4284444 125.428444,27.3111111 125.428444,21 C125.428444,19.7906667 125.237778,18.6262222 124.889333,17.532 L129.714222,17.532 L129.714222,32.0111111 Z M129.714222,9 C129.714222,9.31555556 129.458667,9.57155556 129.142667,9.57155556 L126,9.57155556 C125.684,9.57155556 125.428444,9.316 125.428444,9 L125.428444,5.85733333 C125.428444,5.54177778 125.684,5.28577778 126,5.28577778 L129.142667,5.28577778 C129.458667,5.28577778 129.714222,5.54177778 129.714222,5.85733333 L129.714222,9 Z" id="Shape" fill-rule="nonzero"></path>
            </g>
        </g>
    </g>
</svg>