<?xml version="1.0" encoding="UTF-8"?>
<svg width="40px" height="33px" viewBox="0 0 40 33" version="1.1" xmlns="http://www.w3.org/2000/svg" xmlns:xlink="http://www.w3.org/1999/xlink">
    <!-- Generator: Sketch 46.2 (44496) - http://www.bohemiancoding.com/sketch -->
    <title>noun_20940</title>
    <desc>Created with Sketch.</desc>
    <defs></defs>
    <g id="Website" stroke="none" stroke-width="1" fill="none" fill-rule="evenodd">
        <g id="Desktop" transform="translate(-990.000000, -1467.000000)" fill-rule="nonzero" fill="#4A4A4A">
            <g id="noun_20940" transform="translate(990.000000, 1467.000000)">
                <path d="M35.9073258,8.10090954 C35.92609,8.45221652 35.9333872,8.80665086 35.9333872,9.16212765 C35.9333872,20.0078184 27.6781945,32.5130958 12.582419,32.5130958 C7.94871127,32.5130958 3.63399442,31.1547783 -4.97379915e-14,28.8259363 C0.639024263,28.8968231 1.29577024,28.9416486 1.95772849,28.9416486 C5.80334106,28.9416486 9.34142973,27.6281567 12.1518855,25.4254515 C8.55646191,25.3618618 5.52813323,22.9861093 4.48255193,19.7263558 C4.98397227,19.8222616 5.49894452,19.8754268 6.02329885,19.8754268 C6.77386568,19.8754268 7.49941362,19.7732663 8.18639076,19.586667 C4.43147168,18.828803 1.60120925,15.5158844 1.60120925,11.5357953 C1.60120925,11.5003518 1.60120925,11.4680358 1.60120925,11.4336348 C2.70829533,12.0465977 3.97487686,12.4156264 5.31964244,12.4573245 C3.11797972,10.9853796 1.67105366,8.47098069 1.67105366,5.62508144 C1.67105366,4.12186287 2.07552579,2.7135076 2.78230956,1.50113367 C6.82703083,6.46634177 12.876391,9.73234995 19.6982096,10.0742748 C19.5564358,9.47590628 19.4876339,8.84626411 19.4876339,8.20307003 C19.4876339,3.67465013 23.1612416,4.97379915e-14 27.6917464,4.97379915e-14 C30.053947,4.97379915e-14 32.1878502,0.996585963 33.6848141,2.58841312 C35.5518491,2.22251179 37.3104688,1.53970446 38.8960413,0.59836856 C38.2820359,2.51335644 36.9800109,4.12186287 35.2881082,5.137213 C36.9466524,4.94123166 38.5259701,4.50027364 40,3.84457012 C38.902296,5.49894452 37.5127049,6.94378567 35.9073258,8.10090954 Z" id="Shape"></path>
            </g>
        </g>
    </g>
</svg>